<svg xmlns="http://www.w3.org/2000/svg" width="19.198" height="12" viewBox="0 0 19.198 12">
  <g id="behance" transform="translate(0 0)">
    <g id="Group_2" data-name="Group 2">
      <g id="Group_1" data-name="Group 1">
        <path id="Path_1" data-name="Path 1" d="M7.9,101.4a2.88,2.88,0,0,0,.906-.665,2.583,2.583,0,0,0,.548-1.724,2.951,2.951,0,0,0-.544-1.787,3.662,3.662,0,0,0-3.076-1.248H0v11.7H5.346a8.36,8.36,0,0,0,1.676-.157,3.3,3.3,0,0,0,1.34-.588,3.245,3.245,0,0,0,.84-.92,3.381,3.381,0,0,0,.529-1.866,3.071,3.071,0,0,0-.462-1.715A2.667,2.667,0,0,0,7.9,101.4ZM2.365,98.012H4.948a4.553,4.553,0,0,1,1.4.182,1.05,1.05,0,0,1,.637,1.082,1.1,1.1,0,0,1-.482,1.027,2.42,2.42,0,0,1-1.255.29H2.365Zm4.084,7.434a2.828,2.828,0,0,1-1.2.206H2.365v-3.121H5.286a3.048,3.048,0,0,1,1.188.2,1.255,1.255,0,0,1,.755,1.256A1.471,1.471,0,0,1,6.449,105.446Z" transform="translate(0 -95.979)" fill="#29648a"/>
        <rect id="Rectangle_9" data-name="Rectangle 9" width="5.084" height="1.457" transform="translate(12.269 0.546)" fill="#29648a"/>
        <path id="Path_2" data-name="Path 2" d="M288.5,174.654a4.176,4.176,0,0,0-.7-1.789,3.533,3.533,0,0,0-1.514-1.28,5.013,5.013,0,0,0-2.064-.406,4.272,4.272,0,0,0-3.137,1.2,4.656,4.656,0,0,0-1.208,3.451,4.158,4.158,0,0,0,1.34,3.464,4.815,4.815,0,0,0,3.09,1.064,4.3,4.3,0,0,0,3.3-1.261,2.839,2.839,0,0,0,.85-1.565h-2.342a1.889,1.889,0,0,1-.473.6,1.961,1.961,0,0,1-1.272.4,2.352,2.352,0,0,1-1.266-.326,2.067,2.067,0,0,1-.919-1.825h6.392A11.015,11.015,0,0,0,288.5,174.654Zm-6.258.224a2.346,2.346,0,0,1,.612-1.339,1.845,1.845,0,0,1,1.369-.5,2.037,2.037,0,0,1,1.362.466,1.893,1.893,0,0,1,.611,1.369Z" transform="translate(-269.377 -168.359)" fill="#29648a"/>
      </g>
    </g>
  </g>
</svg>
