<svg xmlns="http://www.w3.org/2000/svg" width="12.5" height="12.5" viewBox="0 0 12.5 12.5">
  <path id="dribbble-logo" d="M6,0a6,6,0,1,0,6,6A6.007,6.007,0,0,0,6,0Zm3.91,2.83a5.011,5.011,0,0,1,1.123,3.017,8.469,8.469,0,0,0-3.375-.032c-.181-.422-.368-.825-.556-1.2A9.936,9.936,0,0,0,9.91,2.831Zm-.676-.687A8.946,8.946,0,0,1,6.655,3.753,23.12,23.12,0,0,0,4.95,1.075,5.024,5.024,0,0,1,9.234,2.144ZM3.977,1.39A22.053,22.053,0,0,1,5.732,4.1a16.1,16.1,0,0,1-4.63.733A5.056,5.056,0,0,1,3.977,1.39ZM.969,5.795H1a17.422,17.422,0,0,0,3.054-.282,14.841,14.841,0,0,0,2.138-.551c.174.348.348.715.516,1.1A9.078,9.078,0,0,0,4.348,7.229a10.614,10.614,0,0,0-2.19,2.024A5.013,5.013,0,0,1,.963,6C.963,5.932.966,5.863.969,5.795ZM2.853,9.929A9.687,9.687,0,0,1,4.923,8,8.078,8.078,0,0,1,7.07,6.948a18.742,18.742,0,0,1,1.012,3.638,5.02,5.02,0,0,1-5.229-.656Zm6.116.138a19.969,19.969,0,0,0-.947-3.347,7.591,7.591,0,0,1,2.948.1A5.042,5.042,0,0,1,8.968,10.067Z" transform="translate(0.25 0.249)" fill="#29648a" stroke="#29648a" stroke-width="0.5"/>
</svg>
