<svg id="instagram_3_" data-name="instagram (3)" xmlns="http://www.w3.org/2000/svg" width="12.199" height="12.201" viewBox="0 0 12.199 12.201">
  <path id="Path_3" data-name="Path 3" d="M12.617,3.587a4.458,4.458,0,0,0-.284-1.48A3.126,3.126,0,0,0,10.548.322,4.47,4.47,0,0,0,9.068.038C8.414.007,8.207,0,6.55,0S4.687.007,4.036.036a4.46,4.46,0,0,0-1.48.284,2.977,2.977,0,0,0-1.082.706A3,3,0,0,0,.77,2.1a4.47,4.47,0,0,0-.284,1.48C.456,4.238.449,4.445.449,6.1S.456,7.966.484,8.617A4.458,4.458,0,0,0,.768,10.1a3.125,3.125,0,0,0,1.785,1.785,4.47,4.47,0,0,0,1.48.284c.651.029.858.036,2.515.036s1.864-.007,2.515-.036a4.457,4.457,0,0,0,1.48-.284A3.121,3.121,0,0,0,12.328,10.1a4.473,4.473,0,0,0,.284-1.48c.029-.651.036-.858.036-2.515s0-1.864-.031-2.515Zm-1.1,4.982a3.344,3.344,0,0,1-.21,1.132A2.024,2.024,0,0,1,10.15,10.86a3.356,3.356,0,0,1-1.132.21c-.644.029-.837.036-2.465.036s-1.823-.007-2.465-.036a3.343,3.343,0,0,1-1.132-.21,1.878,1.878,0,0,1-.7-.455A1.9,1.9,0,0,1,1.8,9.7a3.357,3.357,0,0,1-.21-1.132c-.029-.644-.036-.837-.036-2.465s.007-1.823.036-2.465A3.343,3.343,0,0,1,1.8,2.51a1.855,1.855,0,0,1,.458-.7,1.894,1.894,0,0,1,.7-.455,3.358,3.358,0,0,1,1.132-.21c.644-.029.837-.036,2.465-.036s1.823.007,2.465.036a3.344,3.344,0,0,1,1.132.21,1.876,1.876,0,0,1,.7.455,1.9,1.9,0,0,1,.455.7,3.358,3.358,0,0,1,.21,1.132c.029.644.036.837.036,2.465s-.007,1.819-.036,2.462Zm0,0" transform="translate(-0.449 0)" fill="#29648a"/>
  <path id="Path_4" data-name="Path 4" d="M128.083,124.5a3.134,3.134,0,1,0,3.134,3.134A3.135,3.135,0,0,0,128.083,124.5Zm0,5.168a2.033,2.033,0,1,1,2.033-2.033A2.034,2.034,0,0,1,128.083,129.668Zm0,0" transform="translate(-121.981 -121.532)" fill="#29648a"/>
  <path id="Path_5" data-name="Path 5" d="M363.913,89.334a.732.732,0,1,1-.732-.732A.732.732,0,0,1,363.913,89.334Zm0,0" transform="translate(-353.821 -86.49)" fill="#29648a"/>
</svg>
