<svg id="linkedin" xmlns="http://www.w3.org/2000/svg" width="12.151" height="12.151" viewBox="0 0 12.151 12.151">
  <path id="Path_6" data-name="Path 6" d="M16.339,15.891h0V11.434c0-2.18-.469-3.86-3.018-3.86a2.646,2.646,0,0,0-2.383,1.31h-.035V7.778H8.489V15.89h2.516V11.873c0-1.058.2-2.08,1.51-2.08,1.291,0,1.31,1.207,1.31,2.148v3.95Z" transform="translate(-4.191 -3.739)" fill="#29648a"/>
  <path id="Path_7" data-name="Path 7" d="M.4,7.977H2.915v8.112H.4Z" transform="translate(-0.196 -3.938)" fill="#29648a"/>
  <path id="Path_8" data-name="Path 8" d="M1.459,0A1.466,1.466,0,1,0,2.918,1.459,1.46,1.46,0,0,0,1.459,0Z" fill="#29648a"/>
</svg>
