<svg id="Group_5" data-name="Group 5" xmlns="http://www.w3.org/2000/svg" width="44.732" height="50.945" viewBox="0 0 44.732 50.945">
  <g id="Group_4" data-name="Group 4">
    <path id="Path_9" data-name="Path 9" d="M88.887,36.664l-7-12.126V19.527l7-4.042Z" transform="translate(-71.448 -15.484)" fill="#aaabb8"/>
    <path id="Path_10" data-name="Path 10" d="M81.886,193.289l7,12.125v10.193l-4.318-2.494-2.682-1.548Z" transform="translate(-71.448 -164.662)" fill="#aaabb8"/>
    <path id="Path_11" data-name="Path 11" d="M39.4,79.181l3.558-6.163v14L39.4,93.18l-4.042-7-.866-1.5v.005l-7-12.125v-.006L24.055,66.6V91.63l-7-4.042V56.781l1-.577,6-3.465.059-.034,3.379,5.851v-.013l7,12.125v.014Z" transform="translate(-17.054 -46.712)" fill="#aaabb8"/>
    <path id="Path_12" data-name="Path 12" d="M186.58,15.635l7,4.041V62.49l-2.721,1.571-4.279,2.47Z" transform="translate(-159.286 -15.611)" fill="#aaabb8"/>
    <path id="Path_13" data-name="Path 13" d="M247.731,56.8V87.565l-7,4.042V66.534l-2.048,3.548v-14l1.95-3.378.1.057,5.963,3.442Z" transform="translate(-202.999 -46.712)" fill="#aaabb8"/>
  </g>
</svg>
