<svg xmlns="http://www.w3.org/2000/svg" width="17.644" height="12.591" viewBox="0 0 17.644 12.591">
  <path id="upwork_logo_icon_170310" d="M13.643,12.229a4.007,4.007,0,0,0-3.867,3.253,17.568,17.568,0,0,1-2.011-4.321l-1.99.009L5.8,16.448a1.892,1.892,0,0,1-3.783.018l-.028-5.276L0,11.2l.028,5.276a3.882,3.882,0,1,0,7.763-.037l0-.9a16.9,16.9,0,0,0,1.455,2.382L8.024,23.753l2.04-.009.877-4.235a5.043,5.043,0,0,0,2.74.784,4.032,4.032,0,0,0-.038-8.063Zm.028,6.023a3.542,3.542,0,0,1-2.244-.886l.2-.8v-.05c.146-.847.586-2.293,2.079-2.3a2,2,0,0,1,2,1.982,2.118,2.118,0,0,1-2.032,2.05Z" transform="translate(0 -11.162)" fill="#29648a"/>
</svg>
